<svg width="93" height="28" viewBox="0 0 93 28" fill="none" xmlns="http://www.w3.org/2000/svg">
<path d="M26.4247 13.4C26.4247 5.984 20.5567 0.295998 13.3207 0.295998C6.08467 0.295998 0.216673 5.984 0.216673 13.4C0.216673 20.816 6.08467 26.504 13.3207 26.504C15.4447 26.504 17.4607 26 19.2247 25.136L21.9247 27.98L26.0647 24.308L23.5447 21.644C25.3447 19.412 26.4247 16.568 26.4247 13.4ZM13.3207 20.888C9.21667 20.888 5.97667 17.9 5.97667 13.4C5.97667 8.9 9.21667 5.912 13.3207 5.912C17.4247 5.912 20.6647 8.9 20.6647 13.4C20.6647 14.948 20.2687 16.316 19.6207 17.468L15.5887 13.184L11.4487 16.856L15.0847 20.708C14.5087 20.816 13.9327 20.888 13.3207 20.888ZM35.2075 19.16H47.9875C48.1315 18.476 48.2035 17.756 48.2035 17C48.2035 11.564 44.3155 7.496 39.0595 7.496C33.3715 7.496 29.4835 11.636 29.4835 17C29.4835 22.364 33.2995 26.504 39.4555 26.504C42.8755 26.504 45.5395 25.244 47.3035 22.796L42.9835 20.312C42.2635 21.104 41.0035 21.68 39.5275 21.68C37.5475 21.68 35.8915 21.032 35.2075 19.16ZM35.0995 15.128C35.6035 13.292 36.9715 12.284 39.0235 12.284C40.6435 12.284 42.2635 13.04 42.8395 15.128H35.0995ZM56.6346 19.16H69.4146C69.5586 18.476 69.6306 17.756 69.6306 17C69.6306 11.564 65.7426 7.496 60.4866 7.496C54.7986 7.496 50.9106 11.636 50.9106 17C50.9106 22.364 54.7266 26.504 60.8826 26.504C64.3026 26.504 66.9666 25.244 68.7306 22.796L64.4106 20.312C63.6906 21.104 62.4306 21.68 60.9546 21.68C58.9746 21.68 57.3186 21.032 56.6346 19.16ZM56.5266 15.128C57.0306 13.292 58.3986 12.284 60.4506 12.284C62.0706 12.284 63.6906 13.04 64.2666 15.128H56.5266ZM84.1774 7.496C81.7654 7.496 80.0014 8.324 78.8134 9.692V0.799998H73.4134V26H78.8134V24.308C80.0014 25.676 81.7654 26.504 84.1774 26.504C88.8934 26.504 92.7814 22.364 92.7814 17C92.7814 11.636 88.8934 7.496 84.1774 7.496ZM83.0974 21.392C80.6134 21.392 78.8134 19.7 78.8134 17C78.8134 14.3 80.6134 12.608 83.0974 12.608C85.5814 12.608 87.3814 14.3 87.3814 17C87.3814 19.7 85.5814 21.392 83.0974 21.392Z" fill="white"/>
</svg>
